<?xml version="1.0" encoding="utf-8"?>
<!-- Generator: Adobe Illustrator 20.0.0, SVG Export Plug-In . SVG Version: 6.00 Build 0)  -->
<svg version="1.1" id="レイヤー_1" xmlns="http://www.w3.org/2000/svg" xmlns:xlink="http://www.w3.org/1999/xlink" x="0px"
	 y="0px" viewBox="0 0 595.3 841.9" style="enable-background:new 0 0 595.3 841.9;" xml:space="preserve">
<style type="text/css">
	.st0{fill:none;stroke:#E4007F;stroke-width:0.25;stroke-miterlimit:10;}
</style>
<polygon class="st0" points="264,258.5 264,256 263.5,256 263.5,254 262.5,254 262.5,252 261.5,252 261.5,250 260.5,250 260.5,248 
	259.5,248 259.5,246 258.5,246 258.5,244 257.5,244 257.5,242 256.5,242 256.5,240 255.5,240 255.5,238 254.5,238 254.5,236 
	254,236 254,235.5 255,235.5 255,237.5 256,237.5 256,239.5 257,239.5 257,241.5 258,241.5 258,243.5 259,243.5 259,245.5 
	260,245.5 260,247.5 261,247.5 261,249.5 262,249.5 262,251.5 263,251.5 263,253.5 264,253.5 264,255.5 264.5,255.5 264.5,257.5 
	265.5,259.5 264.5,259.5 265.5,261.5 264.5,261.5 263.5,259.5 263.5,258.5 "/>
</svg>
